<?xml version="1.0" encoding="UTF-8" standalone="no"?><!DOCTYPE svg PUBLIC "-//W3C//DTD SVG 1.1//EN" "http://www.w3.org/Graphics/SVG/1.1/DTD/svg11.dtd"><svg width="100%" height="100%" viewBox="0 0 910 150" version="1.1" xmlns="http://www.w3.org/2000/svg" xmlns:xlink="http://www.w3.org/1999/xlink" xml:space="preserve" style="fill-rule:evenodd;clip-rule:evenodd;stroke-linejoin:round;stroke-miterlimit:1.41421;"><g><g><path d="M7.885,115.173l0,-81.683l10.809,0l0,72.044l40.229,0l0,9.639l-51.038,0Z" style="fill:#f2f2f2;fill-rule:nonzero;"/><path d="M66.779,85.587c0,-10.958 3.046,-19.075 9.138,-24.35c5.089,-4.383 11.293,-6.574 18.61,-6.574c8.135,0 14.784,2.665 19.948,7.995c5.163,5.331 7.745,12.695 7.745,22.093c0,7.615 -1.143,13.604 -3.427,17.969c-2.285,4.365 -5.609,7.754 -9.974,10.169c-4.364,2.414 -9.128,3.621 -14.292,3.621c-8.283,0 -14.979,-2.655 -20.086,-7.967c-5.108,-5.312 -7.662,-12.964 -7.662,-22.956Zm10.308,0c0,7.577 1.653,13.251 4.959,17.022c3.306,3.77 7.467,5.655 12.481,5.655c4.978,0 9.12,-1.894 12.426,-5.683c3.306,-3.789 4.959,-9.565 4.959,-17.329c0,-7.317 -1.663,-12.861 -4.987,-16.632c-3.325,-3.77 -7.457,-5.655 -12.398,-5.655c-5.014,0 -9.175,1.876 -12.481,5.627c-3.306,3.752 -4.959,9.417 -4.959,16.995Z" style="fill:#f2f2f2;fill-rule:nonzero;"/><path d="M133.976,115.173l0,-59.173l9.027,0l0,8.413c4.346,-6.5 10.623,-9.75 18.833,-9.75c3.566,0 6.844,0.64 9.834,1.922c2.99,1.281 5.228,2.962 6.714,5.042c1.486,2.081 2.526,4.551 3.12,7.411c0.372,1.857 0.558,5.108 0.558,9.751l0,36.384l-10.03,0l0,-35.994c0,-4.086 -0.39,-7.141 -1.17,-9.166c-0.78,-2.024 -2.164,-3.64 -4.151,-4.847c-1.987,-1.208 -4.318,-1.811 -6.993,-1.811c-4.271,0 -7.958,1.356 -11.06,4.067c-3.102,2.712 -4.652,7.857 -4.652,15.434l0,32.317l-10.03,0Z" style="fill:#f2f2f2;fill-rule:nonzero;"/><path d="M235.83,115.173l0,-7.466c-3.752,5.869 -9.268,8.803 -16.548,8.803c-4.718,0 -9.055,-1.3 -13.011,-3.9c-3.956,-2.6 -7.02,-6.231 -9.193,-10.893c-2.173,-4.662 -3.26,-10.02 -3.26,-16.075c0,-5.906 0.985,-11.264 2.953,-16.075c1.969,-4.81 4.922,-8.497 8.86,-11.06c3.937,-2.563 8.339,-3.844 13.205,-3.844c3.566,0 6.742,0.752 9.528,2.256c2.786,1.505 5.052,3.464 6.798,5.879l0,-29.308l9.973,0l0,81.683l-9.305,0Zm-31.704,-29.531c0,7.578 1.597,13.243 4.792,16.995c3.195,3.751 6.965,5.627 11.311,5.627c4.383,0 8.107,-1.792 11.172,-5.377c3.064,-3.584 4.596,-9.054 4.596,-16.409c0,-8.098 -1.56,-14.041 -4.68,-17.83c-3.12,-3.789 -6.965,-5.683 -11.534,-5.683c-4.457,0 -8.181,1.82 -11.171,5.46c-2.991,3.64 -4.486,9.38 -4.486,17.217Z" style="fill:#f2f2f2;fill-rule:nonzero;"/><path d="M257.17,85.587c0,-10.958 3.046,-19.075 9.138,-24.35c5.089,-4.383 11.293,-6.574 18.61,-6.574c8.135,0 14.784,2.665 19.948,7.995c5.163,5.331 7.745,12.695 7.745,22.093c0,7.615 -1.143,13.604 -3.427,17.969c-2.285,4.365 -5.609,7.754 -9.974,10.169c-4.364,2.414 -9.128,3.621 -14.292,3.621c-8.283,0 -14.979,-2.655 -20.086,-7.967c-5.108,-5.312 -7.662,-12.964 -7.662,-22.956Zm10.308,0c0,7.577 1.653,13.251 4.959,17.022c3.306,3.77 7.467,5.655 12.481,5.655c4.978,0 9.12,-1.894 12.426,-5.683c3.306,-3.789 4.959,-9.565 4.959,-17.329c0,-7.317 -1.663,-12.861 -4.987,-16.632c-3.325,-3.77 -7.457,-5.655 -12.398,-5.655c-5.014,0 -9.175,1.876 -12.481,5.627c-3.306,3.752 -4.959,9.417 -4.959,16.995Z" style="fill:#f2f2f2;fill-rule:nonzero;"/><path d="M324.367,115.173l0,-59.173l9.027,0l0,8.413c4.346,-6.5 10.623,-9.75 18.833,-9.75c3.566,0 6.844,0.64 9.834,1.922c2.99,1.281 5.228,2.962 6.714,5.042c1.486,2.081 2.526,4.551 3.12,7.411c0.372,1.857 0.558,5.108 0.558,9.751l0,36.384l-10.03,0l0,-35.994c0,-4.086 -0.39,-7.141 -1.17,-9.166c-0.78,-2.024 -2.164,-3.64 -4.151,-4.847c-1.987,-1.208 -4.318,-1.811 -6.993,-1.811c-4.271,0 -7.958,1.356 -11.06,4.067c-3.101,2.712 -4.652,7.857 -4.652,15.434l0,32.317l-10.03,0Z" style="fill:#f2f2f2;fill-rule:nonzero;"/><path d="M439.538,115.173l0,-72.044l-26.912,0l0,-9.639l64.745,0l0,9.639l-27.024,0l0,72.044l-10.809,0Z" style="fill:#f2f2f2;fill-rule:nonzero;"/><path d="M521.723,115.173l0,-8.692c-4.606,6.686 -10.865,10.029 -18.777,10.029c-3.492,0 -6.751,-0.668 -9.779,-2.005c-3.027,-1.338 -5.274,-3.018 -6.742,-5.043c-1.467,-2.024 -2.498,-4.504 -3.092,-7.438c-0.409,-1.969 -0.613,-5.089 -0.613,-9.361l0,-36.663l10.029,0l0,32.818c0,5.238 0.205,8.767 0.613,10.587c0.632,2.637 1.969,4.708 4.012,6.212c2.043,1.505 4.569,2.257 7.578,2.257c3.009,0 5.832,-0.771 8.469,-2.312c2.637,-1.542 4.504,-3.641 5.6,-6.296c1.096,-2.656 1.644,-6.51 1.644,-11.562l0,-31.704l10.029,0l0,59.173l-8.971,0Z" style="fill:#f2f2f2;fill-rule:nonzero;"/><path d="M555.656,115.173l-9.305,0l0,-81.683l10.029,0l0,29.14c4.235,-5.311 9.64,-7.967 16.214,-7.967c3.641,0 7.086,0.733 10.336,2.201c3.251,1.467 5.925,3.528 8.024,6.184c2.099,2.656 3.742,5.86 4.931,9.612c1.189,3.752 1.783,7.763 1.783,12.035c0,10.141 -2.507,17.979 -7.522,23.513c-5.015,5.535 -11.032,8.302 -18.053,8.302c-6.983,0 -12.462,-2.915 -16.437,-8.747l0,7.41Zm-0.111,-30.032c0,7.095 0.965,12.221 2.897,15.378c3.157,5.163 7.429,7.745 12.815,7.745c4.383,0 8.172,-1.904 11.367,-5.711c3.194,-3.808 4.792,-9.482 4.792,-17.022c0,-7.726 -1.533,-13.428 -4.597,-17.106c-3.065,-3.677 -6.77,-5.516 -11.116,-5.516c-4.383,0 -8.172,1.904 -11.367,5.711c-3.194,3.808 -4.791,9.315 -4.791,16.521Z" style="fill:#f2f2f2;fill-rule:nonzero;"/><path d="M650.378,96.117l10.364,1.282c-1.635,6.055 -4.662,10.754 -9.083,14.097c-4.42,3.343 -10.066,5.014 -16.938,5.014c-8.655,0 -15.518,-2.665 -20.588,-7.995c-5.071,-5.331 -7.606,-12.806 -7.606,-22.427c0,-9.955 2.563,-17.681 7.689,-23.179c5.127,-5.498 11.776,-8.246 19.948,-8.246c7.912,0 14.375,2.693 19.39,8.079c5.015,5.386 7.522,12.964 7.522,22.733c0,0.594 -0.019,1.486 -0.056,2.675l-44.129,0c0.371,6.5 2.21,11.478 5.516,14.932c3.306,3.455 7.429,5.182 12.37,5.182c3.677,0 6.816,-0.966 9.416,-2.897c2.6,-1.932 4.662,-5.015 6.185,-9.25Zm-32.93,-16.214l33.041,0c-0.445,-4.977 -1.708,-8.71 -3.789,-11.199c-3.194,-3.863 -7.336,-5.795 -12.425,-5.795c-4.606,0 -8.478,1.542 -11.617,4.625c-3.139,3.083 -4.876,7.206 -5.21,12.369Z" style="fill:#f2f2f2;fill-rule:nonzero;"/><path d="M705.874,115.173l0,-81.683l10.809,0l0,72.044l40.229,0l0,9.639l-51.038,0Z" style="fill:#f2f2f2;fill-rule:nonzero;"/><path d="M768.557,45.023l0,-11.533l10.03,0l0,11.533l-10.03,0Zm0,70.15l0,-59.173l10.03,0l0,59.173l-10.03,0Z" style="fill:#f2f2f2;fill-rule:nonzero;"/><path d="M810.291,115.173l-22.511,-59.173l10.587,0l12.704,35.437c1.374,3.826 2.637,7.801 3.789,11.924c0.891,-3.12 2.136,-6.872 3.733,-11.255l13.15,-36.106l10.308,0l-22.399,59.173l-9.361,0Z" style="fill:#f2f2f2;fill-rule:nonzero;"/><path d="M891.417,96.117l10.364,1.282c-1.634,6.055 -4.662,10.754 -9.082,14.097c-4.42,3.343 -10.067,5.014 -16.939,5.014c-8.655,0 -15.517,-2.665 -20.588,-7.995c-5.07,-5.331 -7.605,-12.806 -7.605,-22.427c0,-9.955 2.563,-17.681 7.689,-23.179c5.126,-5.498 11.775,-8.246 19.947,-8.246c7.912,0 14.376,2.693 19.39,8.079c5.015,5.386 7.522,12.964 7.522,22.733c0,0.594 -0.018,1.486 -0.055,2.675l-44.13,0c0.372,6.5 2.211,11.478 5.517,14.932c3.306,3.455 7.429,5.182 12.369,5.182c3.678,0 6.816,-0.966 9.417,-2.897c2.6,-1.932 4.661,-5.015 6.184,-9.25Zm-32.929,-16.214l33.041,0c-0.446,-4.977 -1.709,-8.71 -3.789,-11.199c-3.195,-3.863 -7.336,-5.795 -12.425,-5.795c-4.606,0 -8.479,1.542 -11.618,4.625c-3.139,3.083 -4.875,7.206 -5.209,12.369Z" style="fill:#f2f2f2;fill-rule:nonzero;"/></g></g></svg>